{"title":"Midnight in the Garden of Good and Evil 1997 DVDrip English Klam","uid":6548888,"size":2314201223,"categoryP":"video","categoryS":"movies","magnet":"?xt=urn:btih:790ada86106ff0e27ccab754d03a3d8643185bba&amp;dn=Midnight+in+the+Garden+of+Good+and+Evil+1997+DVDrip+English+Klam&amp;tr=udp%3A%2F%2Ftracker.openbittorrent.com%3A80&amp;tr=udp%3A%2F%2Fopen.demonii.com%3A1337&amp;tr=udp%3A%2F%2Ftracker.coppersurfer.tk%3A6969&amp;tr=udp%3A%2F%2Fexodus.desync.com%3A6969","seeders":0,"leechers":1,"uploader":"Klambake","files":-1,"time":1310950557,"description":"With: Kevin Spacey, John Cusack and Alison Eastwood\n\nDe film, gesitueerd in het pittoreske Savannah in de staat Georgia, analyseert tegelijkertijd de opmerkelijke inwoners van dit stadje en de ontwikkelingen die plaatsvinden nadat een moord is gepleegd. Dit alles gezien door de ogen van een schrijver uit New York die langzaam betrokken raakt bij de gebeurtenissen.\n\nA visiting city reporter's assignment suddenly revolves around the murder trial of a local millionaire, whom he befriends. \n\n------------------ Dutch Friends ------------------\nYou can find my Friends at: http://www.Film-Test.nl \n------ They got my dutchs subs ---- and more ------\n\nGeneral:\n\nComplete name                    : Midnight in the Garden of Good and Evil\\Midnight in the Garden of Good and Evil.avi\nFormat                           : AVI\nFormat/Info                      : Audio Video Interleave\nFile size                        : 2.16 GiB\nDuration                         : 2h 28mn\nOverall bit rate                 : 2 074 Kbps\n\nVideo:\n\nFormat                           : MPEG-4 Visual\nFormat profile                   : Simple@L3\nFormat settings, BVOP            : No\nFormat settings, QPel            : No\nFormat settings, GMC             : No warppoints\nFormat settings, Matrix          : Default (H.263)\nCodec ID                         : XVID\nCodec ID/Hint                    : XviD\nDuration                         : 2h 28mn\nBit rate                         : 1 679 Kbps\nWidth                            : 652 pixels\nHeight                           : 352 pixels\nDisplay aspect ratio             : 1.852\nFrame rate                       : 25.000 fps\nColor space                      : YUV\nChroma subsampling               : 4:2:0\nBit depth                        : 8 bits\nScan type                        : Progressive\nBits/(Pixel*Frame)               : 0.293\nStream size                      : 1.74 GiB (81%)\nWriting library                  : XviD 1.1.2 (UTC 2006-11-01)\n\nAudio:\n\nFormat                           : AC-3\nFormat/Info                      : Audio Coding 3\nMode extension                   : CM (complete main)\nCodec ID                         : 2000\nDuration                         : 2h 28mn\nBit rate mode                    : Constant\nBit rate                         : 384 Kbps\nChannel(s)                       : 6 channels\nChannel positions                : Front: L C R, Side: L R, LFE\nSampling rate                    : 48.0 KHz\nBit depth                        : 16 bits\nStream size                      : 409 MiB (19%)\nAlignment                        : Aligned on interleaves\nInterleave, duration             : 32 ms (0.80 video frame)\nInterleave, preload duration     : 320 ms\n\n","torrent":{"xt":"urn:btih:790ada86106ff0e27ccab754d03a3d8643185bba","amp;dn":"Midnight+in+the+Garden+of+Good+and+Evil+1997+DVDrip+English+Klam","amp;tr":["udp%3A%2F%2Ftracker.openbittorrent.com%3A80","udp%3A%2F%2Fopen.demonii.com%3A1337","udp%3A%2F%2Ftracker.coppersurfer.tk%3A6969","udp%3A%2F%2Fexodus.desync.com%3A6969"],"infoHash":"790ada86106ff0e27ccab754d03a3d8643185bba","infoHashBuffer":{"type":"Buffer","data":[121,10,218,134,16,111,240,226,124,202,183,84,208,58,61,134,67,24,91,186]},"announce":[],"urlList":[]}}